Results
version=1
nRows=6
nColumns=49
inDegrees=yes
endheader
time	/jointset/bb/crank_angle/value	/jointset/bb/crank_angle/speed	/jointset/spindle/pedal_angle_r/value	/jointset/spindle/pedal_angle_r/speed	/jointset/ground_pelvis/pelvis_tilt/value	/jointset/ground_pelvis/pelvis_tilt/speed	/jointset/ground_pelvis/pelvis_list/value	/jointset/ground_pelvis/pelvis_list/speed	/jointset/ground_pelvis/pelvis_rotation/value	/jointset/ground_pelvis/pelvis_rotation/speed	/jointset/ground_pelvis/pelvis_tx/value	/jointset/ground_pelvis/pelvis_tx/speed	/jointset/ground_pelvis/pelvis_ty/value	/jointset/ground_pelvis/pelvis_ty/speed	/jointset/ground_pelvis/pelvis_tz/value	/jointset/ground_pelvis/pelvis_tz/speed	/jointset/hip_r/hip_angle_r/value	/jointset/hip_r/hip_angle_r/speed	/jointset/hip_r/hip_adduction_r/value	/jointset/hip_r/hip_adduction_r/speed	/jointset/hip_r/hip_rotation_r/value	/jointset/hip_r/hip_rotation_r/speed	/jointset/knee_r/knee_angle_r/value	/jointset/knee_r/knee_angle_r/speed	/jointset/knee_r/tib_tx_r/value	/jointset/knee_r/tib_tx_r/speed	/jointset/knee_r/tib_ty_r/value	/jointset/knee_r/tib_ty_r/speed	/jointset/tib_pat_r/pat_angle_r/value	/jointset/tib_pat_r/pat_angle_r/speed	/jointset/tib_pat_r/pat_tx_r/value	/jointset/tib_pat_r/pat_tx_r/speed	/jointset/tib_pat_r/pat_ty_r/value	/jointset/tib_pat_r/pat_ty_r/speed	/jointset/ankle_r/ankle_angle_r/value	/jointset/ankle_r/ankle_angle_r/speed	/jointset/subtalar_r/subtalar_angle_r/value	/jointset/subtalar_r/subtalar_angle_r/speed	/jointset/mtp_r/mtp_angle_r/value	/jointset/mtp_r/mtp_angle_r/speed	/forceset/bifemlh_r/activation	/forceset/bifemlh_r/fiber_length	/forceset/bifemsh_r/activation	/forceset/bifemsh_r/fiber_length	/forceset/glut_max2_r/activation	/forceset/glut_max2_r/fiber_length	/forceset/vas_int_r/activation	/forceset/vas_int_r/fiber_length
      2.50405876	   -726.33070326	    -60.62289868	    721.29126136	     76.96745913	      0.00000000	      0.00000000	      0.00000000	      0.00000000	      0.00000000	     -0.00000000	     -0.10000000	     -0.00000000	     -0.10000000	     -0.00000000	      0.00000000	      0.00000000	     88.06343070	      6.58996939	      4.00768001	      0.14968913	     -4.61395739	      1.97145364	   -122.73088863	     16.63322802	     -0.00478907	      0.00629225	     -0.49689774	      0.00523094	     17.64770041	      0.01414278	      0.01804134	      0.00852284	     -0.02483766	      0.00138919	     30.39552193	     -7.06954936	     -0.00000000	      0.00000000	     -0.00000000	     -0.00000000	      0.05000000	      0.10000000	      0.05000000	      0.10000000	      0.05000000	      0.10000000	      0.05000000	      0.10000000
      2.53137062	   -727.79332175	    -47.12905052	    723.14538160	     59.65238448	      0.00000000	      0.00000000	      0.00000000	      0.00000000	     -0.00000000	     -0.00000000	     -0.10000000	     -0.00000000	     -0.10000000	      0.00000000	      0.00000000	      0.00000000	     88.21323838	      4.53054378	      4.01139582	      0.12308681	     -4.56560760	      1.58276360	   -122.32116882	     13.47115807	     -0.00463408	      0.00509606	     -0.49676889	      0.00423651	     17.64804879	      0.01145416	      0.01825128	      0.00690260	     -0.02480344	      0.00112510	     30.22282399	     -5.63098984	     -0.00000000	      0.00000000	     -0.00000000	      0.00000000	      0.05000000	      0.10000000	      0.05000000	      0.10000000	      0.05000000	      0.10000000	      0.05000000	      0.10000000
      2.56470411	   -729.15534387	    -35.36397755	    724.86682684	     44.63114083	      0.00000000	      0.00000000	      0.00000000	      0.00000000	     -0.00000000	     -0.00000000	     -0.10000000	      0.00000000	     -0.10000000	      0.00000000	      0.00000000	      0.00000000	     88.33612452	      2.98169768	      4.01504324	      0.09703535	     -4.51921946	      1.22088107	   -121.92469479	     10.47835102	     -0.00448409	      0.00396390	     -0.49664420	      0.00329531	     17.64838590	      0.00890946	      0.01845443	      0.00536909	     -0.02477033	      0.00087514	     30.05842305	     -4.31012701	     -0.00000000	      0.00000000	     -0.00000000	     -0.00000000	      0.05000000	      0.10000000	      0.05000000	      0.10000000	      0.05000000	      0.10000000	      0.05000000	      0.10000000
      2.59803760	   -730.19652798	    -27.71618268	    726.17937792	     34.90062219	      0.00000000	      0.00000000	      0.00000000	      0.00000000	     -0.00000000	     -0.00000000	     -0.10000000	      0.00000000	     -0.10000000	      0.00000000	      0.00000000	      0.00000000	     88.41917771	      2.08491829	      4.01795255	      0.07883433	     -4.48291454	      0.97585280	   -121.61208441	      8.43015711	     -0.00436584	      0.00318908	     -0.49654589	      0.00265118	     17.64865170	      0.00716793	      0.01861461	      0.00431960	     -0.02474422	      0.00070408	     29.93064576	     -3.42404190	     -0.00000000	      0.00000000	     -0.00000000	     -0.00000000	      0.05000000	      0.10000000	      0.05000000	      0.10000000	      0.05000000	      0.10000000	      0.05000000	      0.10000000
      2.64144801	   -731.27131404	    -22.63717873	    727.53117863	     28.43830444	      0.00000000	      0.00000000	      0.00000000	      0.00000000	     -0.00000000	     -0.00000000	     -0.10000000	      0.00000000	     -0.10000000	      0.00000000	      0.00000000	      0.00000000	     88.49495598	      1.48942418	      4.02106507	      0.06671634	     -4.44470483	      0.81237840	   -121.28086664	      7.06609425	     -0.00424054	      0.00267306	     -0.49644173	      0.00222220	     17.64893333	      0.00600811	      0.01878433	      0.00362065	     -0.02471655	      0.00059015	     29.79701337	     -2.83188222	      0.00000000	      0.00000000	     -0.00000000	      0.00000000	      0.05000000	      0.10000000	      0.05000000	      0.10000000	      0.05000000	      0.10000000	      0.05000000	      0.10000000
      2.68485843	   -732.22935940	    -22.25661106	    728.73347171	     27.90133161	      0.00000000	     -0.00000000	      0.00000000	      0.00000000	     -0.00000000	     -0.00000000	     -0.10000000	      0.00000000	     -0.10000000	      0.00000000	      0.00000000	      0.00000000	     88.55395264	      1.27667926	      4.02393217	      0.06761388	     -4.41004398	      0.81161917	   -120.97845249	      7.10319430	     -0.00412614	      0.00268709	     -0.49634662	      0.00223387	     17.64919046	      0.00603965	      0.01893929	      0.00363966	     -0.02469130	      0.00059325	     29.67654935	     -2.81232502	      0.00000000	      0.00000000	     -0.00000000	     -0.00000000	      0.05000000	      0.10000000	      0.05000000	      0.10000000	      0.05000000	      0.10000000	      0.05000000	      0.10000000
